<svg xmlns="http://www.w3.org/2000/svg" width="262.5" viewBox="0 0 262.5 262.5" height="262.5" version="1.0"><defs><clipPath id="a"><path d="M 0 0 L 262 0 L 262 262 L 0 262 Z M 0 0"/></clipPath><clipPath id="b"><path d="M 0 209 L 169 209 L 169 262 L 0 262 Z M 0 209"/></clipPath><clipPath id="c"><path d="M 95 220 L 262 220 L 262 262 L 95 262 Z M 95 220"/></clipPath><clipPath id="d"><path d="M 103 0 L 262 0 L 262 52 L 103 52 Z M 103 0"/></clipPath><clipPath id="e"><path d="M 91 26.25 L 178.503906 26.25 L 178.503906 180 L 91 180 Z M 91 26.25"/></clipPath></defs><g clip-path="url(#a)"><path fill="#FFF" d="M 0 0 L 262.5 0 L 262.5 269.25 L 0 269.25 Z M 0 0"/><path fill="#FFF" d="M 0 0 L 262.5 0 L 262.5 262.5 L 0 262.5 Z M 0 0"/><path fill="#1B48AB" d="M 0 0 L 262.5 0 L 262.5 262.5 L 0 262.5 Z M 0 0"/></g><g clip-path="url(#b)"><path fill="#163C92" d="M 168.589844 270.234375 C 167.886719 293.449219 147.761719 308.042969 127.3125 314.21875 C 116.804688 317.390625 106.175781 316.578125 95.738281 318.75 C 80.648438 321.890625 65.125 328.433594 50.320312 333.046875 C 32.367188 338.644531 14.675781 331.828125 0.402344 320.886719 C -14.234375 309.660156 -24.308594 302.550781 -43.582031 301.449219 C -57.628906 300.648438 -72.507812 301.039062 -84.671875 293.972656 C -91.097656 290.242188 -96.726562 283.40625 -95.558594 276.0625 C -94.253906 267.890625 -81.523438 264.167969 -75.183594 261.386719 C -71.117188 259.601562 -67.058594 258.097656 -63.96875 254.808594 C -58.785156 249.289062 -63.464844 244.613281 -60.730469 238.765625 C -56.855469 230.484375 -46.027344 230.871094 -38.550781 230.089844 C -25.554688 228.730469 -17.097656 219.140625 -4.960938 216.660156 C 10.308594 213.542969 25.949219 216.175781 41.277344 214.046875 C 51.449219 212.636719 61.085938 209.957031 71.53125 209.644531 C 84.328125 209.265625 110.164062 208.875 117.851562 222.019531 C 119.691406 225.164062 118.316406 229.183594 118.960938 232.769531 C 119.921875 238.136719 125.304688 241.675781 130.632812 242.839844 C 135.957031 244.003906 141.507812 243.445312 146.921875 244.089844 C 160.863281 245.746094 169.003906 256.542969 168.589844 270.234375 Z M 168.589844 270.234375"/></g><g clip-path="url(#c)"><path fill="#3D66BF" d="M 95.699219 297.855469 C 96.542969 270.078125 120.632812 252.617188 145.121094 245.226562 C 157.699219 241.433594 170.425781 242.402344 182.917969 239.804688 C 200.988281 236.046875 219.574219 228.21875 237.296875 222.699219 C 258.789062 216 279.972656 224.152344 297.058594 237.25 C 314.582031 250.679688 326.648438 259.1875 349.722656 260.503906 C 366.535156 261.464844 384.351562 261 398.914062 269.453125 C 406.609375 273.917969 413.347656 282.097656 411.949219 290.878906 C 410.386719 300.660156 395.144531 305.113281 387.554688 308.445312 C 382.6875 310.578125 377.828125 312.375 374.128906 316.3125 C 367.921875 322.917969 373.527344 328.511719 370.25 335.507812 C 365.609375 345.417969 352.648438 344.953125 343.695312 345.890625 C 328.136719 347.515625 318.011719 358.992188 303.480469 361.957031 C 285.199219 365.6875 266.472656 362.539062 248.125 365.082031 C 235.949219 366.773438 224.410156 369.980469 211.902344 370.351562 C 196.578125 370.808594 165.648438 371.273438 156.445312 355.546875 C 154.242188 351.78125 155.890625 346.976562 155.117188 342.683594 C 153.96875 336.261719 147.523438 332.027344 141.144531 330.632812 C 134.769531 329.242188 128.125 329.910156 121.640625 329.140625 C 104.949219 327.15625 95.203125 314.234375 95.699219 297.855469 Z M 95.699219 297.855469"/></g><path fill="#3D66BF" d="M 261.980469 -21.074219 C 261.117188 7.507812 236.402344 25.472656 211.285156 33.078125 C 198.382812 36.984375 185.328125 35.984375 172.511719 38.660156 C 153.972656 42.527344 134.90625 50.578125 116.726562 56.261719 C 94.679688 63.152344 72.949219 54.761719 55.417969 41.289062 C 37.441406 27.46875 25.066406 18.714844 1.394531 17.359375 C -15.855469 16.371094 -34.128906 16.851562 -49.070312 8.152344 C -56.960938 3.558594 -63.878906 -4.859375 -62.441406 -13.898438 C -60.839844 -23.960938 -45.203125 -28.542969 -37.414062 -31.96875 C -32.421875 -34.164062 -27.4375 -36.015625 -23.640625 -40.066406 C -17.277344 -46.863281 -23.023438 -52.621094 -19.664062 -59.816406 C -14.902344 -70.015625 -1.609375 -69.539062 7.574219 -70.5 C 23.535156 -72.171875 33.925781 -83.984375 48.828125 -87.035156 C 67.582031 -90.871094 86.792969 -87.632812 105.621094 -90.25 C 118.109375 -91.988281 129.945312 -95.289062 142.773438 -95.671875 C 158.496094 -96.140625 190.226562 -96.621094 199.667969 -80.4375 C 201.925781 -76.566406 200.238281 -71.617188 201.027344 -67.203125 C 202.210938 -60.59375 208.820312 -56.234375 215.363281 -54.804688 C 221.90625 -53.371094 228.71875 -54.058594 235.371094 -53.265625 C 252.496094 -51.222656 262.492188 -37.929688 261.980469 -21.074219 Z M 261.980469 -21.074219"/><g clip-path="url(#d)"><path fill="#163C92" d="M 412.714844 -23.773438 C 411.890625 3.332031 388.367188 20.371094 364.457031 27.582031 C 352.179688 31.285156 339.753906 30.339844 327.550781 32.875 C 309.910156 36.542969 291.761719 44.179688 274.457031 49.566406 C 253.472656 56.101562 232.789062 48.144531 216.105469 35.367188 C 198.992188 22.261719 187.214844 13.957031 164.683594 12.675781 C 148.265625 11.738281 130.871094 12.191406 116.652344 3.941406 C 109.136719 -0.414062 102.558594 -8.398438 103.925781 -16.96875 C 105.449219 -26.511719 120.332031 -30.859375 127.746094 -34.105469 C 132.496094 -36.1875 137.242188 -37.945312 140.855469 -41.785156 C 146.914062 -48.230469 141.441406 -53.691406 144.636719 -60.515625 C 149.171875 -70.1875 161.824219 -69.738281 170.566406 -70.648438 C 185.757812 -72.234375 195.644531 -83.433594 209.832031 -86.328125 C 227.683594 -89.96875 245.96875 -86.898438 263.886719 -89.378906 C 275.773438 -91.027344 287.039062 -94.15625 299.25 -94.519531 C 314.214844 -94.964844 344.414062 -95.417969 353.402344 -80.070312 C 355.550781 -76.398438 353.945312 -71.707031 354.695312 -67.519531 C 355.820312 -61.253906 362.113281 -57.121094 368.339844 -55.761719 C 374.566406 -54.402344 381.054688 -55.054688 387.382812 -54.304688 C 403.683594 -52.367188 413.199219 -39.761719 412.714844 -23.773438 Z M 412.714844 -23.773438"/></g><path fill="#F28B9A" d="M 152.234375 123.863281 C 149.667969 121.347656 147.558594 122.746094 144.570312 121.363281 C 141.492188 119.9375 141.132812 117.980469 139.914062 122.070312 C 139.574219 123.210938 139.761719 124.464844 139.144531 125.550781 C 138.75 126.25 137.675781 125.726562 137.242188 126.585938 C 136.320312 128.421875 137.925781 131.164062 134.742188 130.609375 L 137.976562 137.898438 C 141.652344 136.292969 145.324219 134.664062 148.949219 132.941406 C 153.5625 130.75 157.707031 129.21875 152.234375 123.863281 Z M 130.429688 125.605469 C 130.128906 125.214844 123.191406 125.605469 124.769531 120.480469 C 125.125 119.324219 132.804688 117.296875 133.613281 116.984375 C 138.347656 115.152344 143.773438 113.75 148.210938 111.253906 C 148.855469 110.894531 152.511719 110.015625 152.773438 109.207031 C 152.925781 108.742188 152.476562 104.679688 151.28125 105.074219 C 145.820312 106.890625 140.527344 109.558594 135.222656 111.777344 C 133 112.703125 121.285156 115.402344 119.984375 117.019531 C 118.21875 119.207031 121.996094 125.28125 118.753906 128.671875 C 117.207031 130.289062 111.460938 132.617188 109.316406 132.773438 C 101.238281 133.359375 99.0625 122.410156 99.414062 115.484375 C 99.71875 109.421875 105.140625 102.632812 109.21875 99.519531 C 114.777344 95.289062 116.867188 97.6875 115.828125 90.542969 C 115.148438 85.871094 113.464844 80.453125 111.914062 75.996094 C 111.308594 74.253906 109.695312 68.515625 108.082031 67.667969 C 102.914062 64.957031 104.453125 72.203125 105.5 74.09375 C 100.855469 76.042969 90.464844 78.273438 87.246094 82.082031 C 84.230469 85.65625 87.273438 88.738281 87.988281 93.625 C 89.371094 103.050781 87.71875 113.058594 88.082031 122.574219 C 88.46875 132.75 94.488281 155.65625 108.144531 155.929688 C 112.273438 156.015625 115.601562 151.746094 119.492188 150.769531 C 121.71875 150.210938 120.695312 153.820312 122.25 153.523438 C 124.386719 153.117188 125.234375 149.660156 128.351562 149.527344 C 132.015625 149.375 139.550781 161.140625 140.902344 157.296875 C 141.796875 154.765625 136.71875 148.996094 135.828125 146.296875 C 133.785156 140.136719 134.644531 131.0625 130.429688 125.605469 Z M 121.90625 114.332031 C 121.90625 114.332031 121.339844 113.472656 121.90625 113.117188 C 122.472656 112.765625 123.210938 112.246094 123.484375 112.273438 C 123.757812 112.300781 124.101562 113.105469 124.101562 113.105469 C 124.101562 113.105469 124.777344 114.316406 121.90625 114.332031"/><path fill="#E6CA34" d="M 118.207031 137.898438 C 118.207031 150.535156 137.976562 150.535156 137.976562 137.898438 C 137.976562 125.136719 118.207031 125.335938 118.207031 137.898438 Z M 141.457031 87.984375 L 135.179688 91.167969 C 135.179688 91.167969 137.730469 96.542969 138.25 96.597656 C 138.480469 96.621094 138.738281 96.621094 138.972656 96.652344 C 139.929688 96.019531 141.773438 94.90625 143.910156 94.128906 C 143.9375 93.988281 143.988281 93.875 144.074219 93.816406 C 144.402344 93.597656 141.457031 87.984375 141.457031 87.984375 Z M 135.425781 100.304688 C 134.292969 97.726562 131.847656 93.019531 131.847656 93.019531 L 126.949219 95.472656 C 126.949219 95.472656 129.511719 100.464844 130.863281 102.839844 C 132.898438 101.984375 134.601562 100.878906 135.425781 100.304688 Z M 119.21875 86.59375 C 119.21875 100.421875 97.667969 100.386719 97.667969 86.59375 C 97.667969 72.8125 119.21875 72.675781 119.21875 86.59375"/><g clip-path="url(#e)"><path fill="#1BC874" d="M 103.238281 54.390625 C 103.695312 55.230469 104.527344 56.289062 104.738281 57.230469 C 104.839844 57.683594 104.394531 58.246094 104.496094 58.621094 C 104.65625 59.214844 105.195312 59.871094 105.382812 60.523438 C 105.628906 61.375 106.074219 61.617188 106.136719 62.421875 C 106.167969 62.871094 105.355469 63.484375 105.425781 64.195312 C 105.527344 65.242188 107.085938 66.636719 107.769531 67.398438 L 118.78125 89.628906 C 119.296875 92.035156 118.296875 98.417969 121.542969 98.410156 C 124.019531 98.402344 128.035156 95.476562 130.210938 94.429688 C 133.175781 93.003906 148.695312 87.671875 147.058594 83.605469 C 146.636719 82.566406 144.214844 80.457031 143.285156 79.816406 C 142.6875 79.402344 142.234375 79.191406 141.824219 78.964844 C 141.617188 78.851562 141.152344 79.472656 140.847656 79.3125 C 139.515625 78.59375 138.210938 75.199219 137.457031 73.96875 C 133.796875 67.972656 130.261719 61.90625 126.59375 55.921875 C 125.449219 54.058594 124.304688 53.351562 122.875 51.992188 C 120.9375 50.152344 119.808594 49.847656 118.304688 47.300781 C 116.449219 44.15625 114.648438 40.976562 112.859375 37.792969 C 112.027344 36.320312 109.050781 32.710938 109.136719 30.957031 C 109.222656 29.109375 111.496094 29.523438 109.339844 27.238281 C 108.441406 26.28125 108.585938 26.253906 107.5625 26.25 C 105.519531 26.242188 101.804688 29.085938 100.015625 29.992188 C 97.90625 31.0625 92.902344 32.597656 91.535156 34.597656 C 90.796875 35.675781 90.964844 35.410156 91.695312 36.949219 C 92.019531 37.625 92.425781 38.394531 93.003906 38.875 C 93.414062 39.207031 93.75 38.410156 93.988281 38.613281 C 95.621094 40.027344 96.6875 42.71875 97.78125 44.632812 C 99.632812 47.867188 101.460938 51.117188 103.238281 54.390625 Z M 174.730469 169.144531 C 172.394531 165.917969 171.152344 164.765625 167.480469 164.910156 C 163.824219 165.054688 160.132812 165.589844 156.480469 165.84375 C 153.265625 166.066406 147.90625 167.386719 144.734375 166.472656 C 141.332031 165.492188 139.4375 161.507812 138.199219 158.464844 C 136.78125 154.996094 135.222656 151.34375 131.355469 149.976562 C 128.101562 148.824219 122.871094 149.675781 121.953125 153.550781 C 120.820312 156.324219 119.765625 160.140625 117.742188 162.378906 C 114.980469 165.425781 109.527344 166.1875 105.792969 167.714844 C 101.910156 169.308594 96.527344 172.183594 95.394531 176.675781 C 94.628906 179.722656 94.886719 178.660156 96.535156 179.339844 C 100.15625 180.824219 107.539062 179.339844 111.40625 179.339844 C 119.191406 179.339844 126.984375 179.339844 134.773438 179.339844 C 148.21875 179.339844 161.75 179.789062 175.1875 179.339844 C 175.617188 179.324219 177.664062 179.640625 178.027344 179.339844 C 179.910156 177.792969 175.671875 170.441406 174.730469 169.144531 Z M 126.550781 114.179688 C 126.589844 114.222656 126.625 114.269531 126.664062 114.316406 C 124.441406 114.980469 122.335938 115.671875 121.074219 116.292969 C 120.960938 115.988281 120.886719 115.660156 120.902344 115.347656 C 120.9375 114.570312 121.671875 114.46875 122.242188 114.15625 C 122.933594 113.777344 123.589844 113.292969 124.328125 113.007812 C 124.578125 112.910156 124.871094 112.820312 125.128906 112.917969 C 125.195312 112.941406 125.257812 112.976562 125.316406 113.011719 C 126.222656 112.304688 127.289062 111.707031 128.421875 111.460938 C 129.984375 111.128906 131.601562 111.070312 133.175781 110.804688 C 134.640625 110.554688 136.097656 110.175781 137.511719 109.71875 C 138.621094 109.359375 139.96875 108.945312 140.792969 108.074219 C 141.003906 107.855469 141.203125 107.613281 141.378906 107.367188 C 141.394531 107.347656 141.527344 107.097656 141.558594 107.097656 C 141.613281 107.097656 141.660156 107.253906 141.664062 107.300781 C 141.699219 107.742188 141.09375 108.316406 140.820312 108.578125 C 140.015625 109.355469 138.984375 109.878906 137.933594 110.246094 C 136.273438 110.835938 134.488281 111.078125 132.777344 111.496094 C 131.433594 111.820312 130.082031 112.164062 128.769531 112.621094 C 127.886719 112.929688 127.074219 113.363281 126.550781 114.179688"/></g><path fill="#2E2E30" d="M 131.464844 149.664062 C 128.269531 148.28125 123.933594 149.28125 122.085938 152.363281 C 121.917969 152.636719 122.320312 152.851562 122.503906 152.605469 C 124.761719 149.5625 129.421875 149.34375 132.382812 151.300781 C 133.816406 152.246094 134.917969 153.589844 135.820312 155.03125 C 136.597656 156.277344 137.097656 157.714844 137.957031 158.894531 C 138.214844 159.242188 138.792969 159.046875 138.679688 158.589844 C 137.824219 155.0625 134.835938 151.121094 131.464844 149.664062 Z M 105.527344 33.210938 C 106.582031 32.664062 107.828125 32.210938 108.574219 31.273438 C 108.675781 31.148438 108.625 30.90625 108.429688 30.921875 C 107.363281 31 106.550781 31.5625 105.605469 32.058594 C 104.363281 32.714844 103.136719 33.394531 101.90625 34.066406 C 99.6875 35.273438 97.050781 36.285156 95.164062 37.976562 C 95.0625 38.070312 95.167969 38.226562 95.292969 38.199219 C 97.675781 37.621094 99.898438 36.085938 102.066406 34.976562 C 103.21875 34.386719 104.378906 33.808594 105.527344 33.210938 Z M 105.695312 57.015625 C 107.980469 56.753906 110.375 55.53125 112.472656 54.605469 C 113.648438 54.085938 114.816406 53.554688 115.976562 53 C 117.140625 52.441406 118.492188 51.992188 119.308594 50.96875 C 119.429688 50.816406 119.367188 50.558594 119.144531 50.5625 C 118.050781 50.589844 117.222656 51.101562 116.25 51.566406 C 114.996094 52.167969 113.734375 52.761719 112.476562 53.351562 C 110.253906 54.390625 107.546875 55.324219 105.625 56.847656 C 105.558594 56.898438 105.613281 57.027344 105.695312 57.015625 Z M 107.234375 61.050781 C 107.089844 61.179688 107.25 61.390625 107.414062 61.355469 C 110.113281 60.789062 112.789062 59.015625 115.25 57.800781 C 117.734375 56.574219 120.753906 55.570312 122.910156 53.835938 C 123.234375 53.574219 122.878906 53.085938 122.527344 53.175781 C 119.839844 53.855469 117.210938 55.6875 114.746094 56.9375 C 112.304688 58.171875 109.300781 59.242188 107.234375 61.050781 Z M 132.429688 89.070312 C 136.71875 86.992188 141.253906 85.117188 145.382812 82.746094 C 145.898438 82.449219 145.445312 81.757812 144.929688 81.976562 C 140.523438 83.839844 136.328125 86.292969 131.957031 88.265625 C 129.769531 89.253906 127.582031 90.238281 125.398438 91.246094 C 123.671875 92.042969 121.609375 92.679688 120.214844 94.011719 C 120.089844 94.132812 120.21875 94.351562 120.386719 94.300781 C 122.417969 93.695312 124.378906 92.621094 126.351562 91.820312 C 128.410156 90.984375 130.433594 90.039062 132.429688 89.070312 Z M 121.007812 89.859375 C 122.648438 89.632812 124.207031 88.617188 125.683594 87.90625 C 127.378906 87.089844 129.082031 86.277344 130.785156 85.472656 C 134.148438 83.886719 137.792969 82.5 140.898438 80.46875 C 141.082031 80.351562 140.972656 80.050781 140.75 80.113281 C 137.246094 81.09375 133.878906 82.9375 130.597656 84.492188 C 128.894531 85.300781 127.195312 86.117188 125.5 86.9375 C 123.933594 87.695312 122.074219 88.320312 120.828125 89.554688 C 120.683594 89.695312 120.835938 89.882812 121.007812 89.859375 Z M 142.015625 89.171875 C 142.148438 89.054688 142.039062 88.847656 141.878906 88.839844 C 140.769531 88.796875 139.589844 89.441406 138.585938 89.878906 C 137.441406 90.378906 136.183594 90.894531 135.253906 91.742188 C 135.105469 91.875 135.261719 92.097656 135.4375 92.058594 C 136.652344 91.773438 137.8125 91.105469 138.957031 90.617188 C 139.953125 90.1875 141.191406 89.898438 142.015625 89.171875 Z M 132.433594 93.476562 C 131.246094 93.394531 130.03125 94.070312 128.964844 94.527344 C 128.109375 94.890625 126.675781 95.230469 126.328125 96.167969 C 126.3125 96.210938 126.347656 96.265625 126.390625 96.277344 C 127.308594 96.550781 128.371094 95.714844 129.199219 95.351562 C 130.277344 94.871094 131.660156 94.554688 132.535156 93.726562 C 132.636719 93.632812 132.554688 93.484375 132.433594 93.476562 Z M 116.308594 93.839844 C 112.988281 95.46875 108.996094 97.21875 105.179688 96.226562 C 103.476562 95.785156 101.367188 94.726562 100.144531 93.445312 C 98.667969 91.894531 98.5625 89.800781 98.003906 87.859375 C 97.925781 87.582031 97.519531 87.640625 97.507812 87.925781 C 97.375 92.433594 100.28125 95.539062 104.414062 96.917969 C 106.359375 97.5625 108.621094 97.335938 110.613281 97.046875 C 112.75 96.734375 115.246094 96.042969 116.710938 94.359375 C 116.960938 94.074219 116.652344 93.671875 116.308594 93.839844 Z M 110.410156 88.90625 C 111.960938 89.539062 112.292969 86.410156 112.117188 85.527344 C 111.800781 83.949219 109.882812 82.308594 108.242188 82.988281 C 108.109375 83.046875 108.089844 83.234375 108.242188 83.285156 C 108.820312 83.460938 109.414062 83.429688 109.945312 83.75 C 110.558594 84.117188 111.152344 84.722656 111.421875 85.375 C 111.78125 86.242188 111.746094 87.300781 111 87.949219 C 110.695312 88.210938 110.472656 88.222656 110.277344 88.582031 C 110.203125 88.71875 110.277344 88.851562 110.410156 88.90625 Z M 105.972656 84.03125 C 104.636719 84.960938 104.011719 86.722656 104.695312 88.261719 C 105.253906 89.527344 107.15625 90.976562 108.53125 90.078125 C 108.703125 89.960938 108.71875 89.707031 108.53125 89.597656 C 107.476562 88.976562 106.265625 89.148438 105.589844 87.886719 C 104.949219 86.695312 105.628906 85.339844 106.21875 84.273438 C 106.300781 84.128906 106.128906 83.921875 105.972656 84.03125 Z M 133.789062 141.890625 C 133.753906 142.066406 133.910156 142.304688 134.121094 142.21875 C 136.082031 141.402344 135.863281 138.488281 135.722656 136.742188 C 135.53125 134.332031 134.570312 132.148438 132.230469 131.113281 C 132.0625 131.039062 131.925781 131.214844 132.039062 131.359375 C 132.578125 132.054688 133.28125 132.574219 133.816406 133.273438 C 134.671875 134.386719 134.875 135.625 134.917969 136.996094 C 134.945312 137.878906 134.890625 138.785156 134.632812 139.636719 C 134.394531 140.414062 133.941406 141.089844 133.789062 141.890625 Z M 123.375 143.410156 C 125.609375 145.347656 130.753906 145.929688 132.585938 143.109375 C 132.683594 142.960938 132.554688 142.761719 132.386719 142.761719 C 131.199219 142.765625 130.140625 143.425781 128.972656 143.628906 C 127.265625 143.925781 125.46875 143.695312 124.082031 142.605469 C 121.402344 140.5 121.046875 136.632812 121.863281 133.5625 C 121.925781 133.320312 121.570312 133.160156 121.449219 133.390625 C 119.808594 136.445312 120.773438 141.152344 123.375 143.410156 Z M 151.441406 123.667969 C 148.957031 124.273438 146.507812 125.523438 144.152344 126.507812 C 141.929688 127.441406 139.566406 128.222656 137.457031 129.402344 C 137.199219 129.546875 137.375 129.941406 137.65625 129.871094 C 140 129.296875 142.257812 128.207031 144.476562 127.273438 C 146.800781 126.292969 149.449219 125.304688 151.519531 123.863281 C 151.617188 123.796875 151.558594 123.640625 151.441406 123.667969 Z M 140.152344 125.179688 C 141.148438 124.957031 142.097656 124.460938 143.023438 124.046875 C 143.84375 123.683594 144.734375 123.425781 145.269531 122.679688 C 145.308594 122.625 145.253906 122.554688 145.195312 122.550781 C 144.320312 122.496094 143.605469 122.972656 142.828125 123.320312 C 141.863281 123.746094 140.824219 124.089844 139.929688 124.652344 C 139.648438 124.828125 139.828125 125.253906 140.152344 125.179688 Z M 128.089844 136.640625 C 127.390625 136.640625 126.824219 137.203125 126.824219 137.898438 C 126.824219 138.597656 127.390625 139.160156 128.089844 139.160156 C 128.789062 139.160156 129.355469 138.597656 129.355469 137.898438 C 129.355469 137.203125 128.789062 136.640625 128.089844 136.640625 Z M 110.316406 86.59375 C 110.316406 85.558594 109.476562 84.722656 108.445312 84.722656 C 107.410156 84.722656 106.570312 85.558594 106.570312 86.59375 C 106.570312 87.625 107.410156 88.460938 108.445312 88.460938 C 109.476562 88.460938 110.316406 87.625 110.316406 86.59375 Z M 139.671875 97.058594 C 139.917969 97.550781 140.875 97.359375 142.023438 96.597656 C 143.171875 95.832031 143.9375 95.617188 143.9375 95.289062 C 143.9375 95.050781 143.839844 94.496094 143.910156 94.128906 C 141.773438 94.90625 139.929688 96.019531 138.972656 96.652344 C 139.269531 96.695312 139.535156 96.789062 139.671875 97.058594 Z M 135.980469 101.90625 C 136.019531 101.753906 135.792969 101.140625 135.425781 100.304688 C 134.601562 100.878906 132.898438 101.984375 130.863281 102.839844 C 131.285156 103.578125 131.589844 104.066406 131.660156 104.066406 C 131.960938 104.066406 135.816406 102.523438 135.980469 101.90625 Z M 131.25 156.515625 C 131.25 157.871094 129.953125 158.96875 128.351562 158.96875 C 126.75 158.96875 125.453125 157.871094 125.453125 156.515625 C 125.453125 155.160156 126.75 154.0625 128.351562 154.0625 C 129.953125 154.0625 131.25 155.160156 131.25 156.515625"/><path fill="#FFF" d="M 175.75 176.695312 C 174.894531 173.933594 173.449219 170.644531 171.496094 168.464844 C 170.21875 167.039062 167.492188 165.96875 165.914062 167.496094 C 165.824219 167.585938 165.855469 167.78125 165.996094 167.804688 C 166.929688 167.945312 167.90625 167.835938 168.816406 168.136719 C 170.128906 168.570312 170.863281 169.675781 171.535156 170.800781 C 172.757812 172.847656 173.636719 175.007812 174.589844 177.183594 C 174.878906 177.839844 175.957031 177.371094 175.75 176.695312 Z M 138.605469 92.371094 C 138.421875 92.066406 137.851562 92.167969 137.890625 92.5625 C 137.933594 93.039062 138.09375 93.484375 138.242188 93.941406 C 138.382812 94.371094 138.441406 94.683594 138.890625 94.855469 C 138.992188 94.894531 139.105469 94.828125 139.160156 94.746094 C 139.410156 94.355469 139.242188 94.027344 139.109375 93.621094 C 138.964844 93.199219 138.839844 92.753906 138.605469 92.371094 Z M 129.527344 97.042969 C 129.417969 97.019531 129.316406 97.0625 129.253906 97.15625 C 128.855469 97.738281 129.433594 98.628906 129.675781 99.195312 C 129.988281 99.925781 130.234375 100.894531 130.9375 101.335938 C 131.171875 101.480469 131.414062 101.285156 131.4375 101.050781 C 131.519531 100.28125 130.949219 99.472656 130.652344 98.785156 C 130.40625 98.222656 130.199219 97.203125 129.527344 97.042969 Z M 151.554688 108.449219 C 151.5625 108.140625 151.457031 107.832031 151.382812 107.539062 C 151.308594 107.246094 151.261719 106.953125 151.140625 106.679688 C 151.011719 106.378906 150.507812 106.464844 150.445312 106.769531 C 150.332031 107.316406 150.414062 108.191406 150.699219 108.679688 C 150.933594 109.078125 151.539062 108.894531 151.554688 108.449219 Z M 151.785156 125.457031 C 151.617188 125.46875 151.542969 125.488281 151.425781 125.605469 C 151.304688 125.726562 151.234375 125.933594 151.296875 126.101562 C 151.710938 127.257812 152.128906 128.296875 151.214844 129.320312 C 150.878906 129.695312 151.296875 130.246094 151.75 130.011719 C 153.351562 129.195312 152.878906 126.976562 152.226562 125.710938 C 152.148438 125.558594 151.957031 125.449219 151.785156 125.457031 Z M 123.746094 131.523438 C 123.433594 131.765625 123.59375 132.324219 124.035156 132.207031 C 124.84375 131.988281 125.605469 131.699219 126.453125 131.652344 C 127.140625 131.617188 127.875 131.808594 128.535156 131.609375 C 128.753906 131.546875 128.855469 131.246094 128.675781 131.085938 C 127.5 130.03125 124.875 130.660156 123.746094 131.523438 Z M 99.628906 85.554688 C 99.710938 85.820312 100.128906 85.851562 100.195312 85.554688 C 100.617188 83.75 100.824219 82.25 102.3125 80.921875 C 102.980469 80.324219 103.742188 79.867188 104.566406 79.515625 C 105.261719 79.21875 106.003906 79.085938 106.636719 78.675781 C 106.902344 78.503906 106.773438 78.152344 106.484375 78.117188 C 103.207031 77.714844 98.554688 82.195312 99.628906 85.554688 Z M 121.890625 95.382812 C 121.582031 94.898438 120.863281 95.214844 120.976562 95.769531 C 121.050781 96.128906 121.199219 96.472656 121.355469 96.804688 C 121.507812 97.117188 121.707031 97.492188 122.039062 97.632812 C 122.363281 97.773438 122.695312 97.609375 122.722656 97.242188 C 122.75 96.898438 122.546875 96.574219 122.390625 96.277344 C 122.230469 95.976562 122.074219 95.671875 121.890625 95.382812 Z M 107.371094 59.984375 C 107.734375 60.105469 107.96875 59.742188 107.925781 59.429688 C 107.882812 59.125 107.660156 58.894531 107.507812 58.636719 C 107.355469 58.382812 107.257812 58.105469 107.105469 57.855469 C 106.875 57.472656 106.207031 57.613281 106.230469 58.089844 C 106.265625 58.75 106.695312 59.761719 107.371094 59.984375 Z M 93.796875 37.367188 C 94.242188 37.761719 94.808594 37.273438 94.585938 36.761719 C 94.414062 36.363281 94.121094 36 93.917969 35.613281 C 93.738281 35.269531 93.613281 34.816406 93.300781 34.566406 C 93.179688 34.472656 92.949219 34.445312 92.871094 34.625 C 92.675781 35.070312 92.832031 35.5625 92.992188 36.003906 C 93.164062 36.472656 93.417969 37.03125 93.796875 37.367188 Z M 101.765625 47.871094 C 102.757812 49.78125 103.609375 52.40625 105.363281 53.730469 C 105.523438 53.851562 105.761719 53.691406 105.753906 53.507812 C 105.660156 51.386719 104.046875 49.308594 103.066406 47.484375 C 101.855469 45.234375 100.734375 42.871094 99.277344 40.765625 C 99.003906 40.375 98.253906 40.601562 98.449219 41.113281 C 99.34375 43.449219 100.617188 45.652344 101.765625 47.871094 Z M 119.078125 85.253906 C 119.195312 85.417969 119.535156 85.386719 119.507812 85.136719 C 119.183594 82.058594 117.613281 79.078125 116.375 76.273438 C 114.984375 73.113281 113.625 69.792969 111.703125 66.914062 C 111.523438 66.648438 111.042969 66.804688 111.152344 67.144531 C 112.214844 70.335938 113.785156 73.375 115.089844 76.46875 C 116.308594 79.363281 117.238281 82.683594 119.078125 85.253906 Z M 120.820312 161.75 C 119.78125 162.472656 119.1875 163.734375 118.261719 164.601562 C 117.257812 165.546875 115.90625 166.230469 115.035156 167.292969 C 114.785156 167.597656 115.007812 168.140625 115.449219 168.003906 C 116.8125 167.589844 118.132812 166.460938 119.175781 165.511719 C 120.117188 164.652344 121.429688 163.421875 121.316406 162.035156 C 121.300781 161.808594 121.042969 161.59375 120.820312 161.75 Z M 110.195312 152.089844 C 108.75 151.941406 107.363281 152.234375 105.910156 151.96875 C 104.667969 151.738281 103.492188 151.269531 102.414062 150.617188 C 100.230469 149.296875 98.535156 147.261719 97.230469 145.101562 C 94.519531 140.59375 93.507812 135.476562 91.941406 130.527344 C 91.84375 130.210938 91.285156 130.246094 91.332031 130.609375 C 92.113281 136.492188 93.6875 142.734375 97.265625 147.589844 C 98.8125 149.691406 100.78125 151.511719 103.207031 152.550781 C 105.304688 153.449219 108.460938 154.101562 110.355469 152.476562 C 110.519531 152.332031 110.371094 152.109375 110.195312 152.089844 Z M 89.753906 83.507812 C 88.203125 84.933594 89.527344 87.496094 89.109375 89.347656 C 89.070312 89.511719 88.816406 89.59375 88.703125 89.453125 C 87.558594 88.019531 86.972656 84.765625 88.109375 83.171875 C 89.464844 81.277344 92.875 79.953125 95.132812 79.941406 C 95.457031 79.9375 95.585938 80.394531 95.296875 80.558594 C 93.5 81.558594 91.300781 82.089844 89.753906 83.507812"/><g fill="#FFF"><g><g><path d="M 17.671875 -13.890625 C 18.679688 -13.203125 19.484375 -12.3125 20.078125 -11.21875 C 20.679688 -10.125 20.984375 -8.914062 20.984375 -7.59375 C 20.984375 -6.539062 20.78125 -5.550781 20.375 -4.625 C 19.96875 -3.695312 19.414062 -2.890625 18.71875 -2.203125 C 18.019531 -1.523438 17.207031 -0.988281 16.28125 -0.59375 C 15.363281 -0.195312 14.375 0 13.3125 0 L 1.734375 0 L 1.734375 -25.53125 L 12.953125 -25.53125 C 13.921875 -25.53125 14.820312 -25.34375 15.65625 -24.96875 C 16.5 -24.59375 17.238281 -24.09375 17.875 -23.46875 C 18.507812 -22.84375 19.003906 -22.109375 19.359375 -21.265625 C 19.722656 -20.429688 19.90625 -19.535156 19.90625 -18.578125 C 19.90625 -17.546875 19.707031 -16.640625 19.3125 -15.859375 C 18.914062 -15.078125 18.367188 -14.421875 17.671875 -13.890625 Z M 7.203125 -15.953125 L 12.953125 -15.953125 C 13.609375 -15.953125 14.160156 -16.175781 14.609375 -16.625 C 15.066406 -17.082031 15.296875 -17.632812 15.296875 -18.28125 C 15.296875 -18.9375 15.066406 -19.476562 14.609375 -19.90625 C 14.160156 -20.34375 13.609375 -20.5625 12.953125 -20.5625 L 7.203125 -20.5625 Z M 13.3125 -4.9375 C 14.039062 -4.9375 14.65625 -5.238281 15.15625 -5.84375 C 15.65625 -6.457031 15.90625 -7.171875 15.90625 -7.984375 C 15.90625 -8.828125 15.65625 -9.535156 15.15625 -10.109375 C 14.65625 -10.691406 14.039062 -10.984375 13.3125 -10.984375 L 7.203125 -10.984375 L 7.203125 -4.9375 Z M 13.3125 -4.9375" transform="translate(63.881 219.629)"/></g></g></g><g fill="#FFF"><g><g><path d="M 7.015625 0 L 2.046875 0 L 2.046875 -17.859375 L 7.015625 -17.859375 Z M 4.53125 -20.296875 C 3.769531 -20.296875 3.125 -20.5625 2.59375 -21.09375 C 2.0625 -21.625 1.796875 -22.273438 1.796875 -23.046875 C 1.796875 -23.804688 2.0625 -24.457031 2.59375 -25 C 3.125 -25.539062 3.769531 -25.8125 4.53125 -25.8125 C 5.300781 -25.8125 5.945312 -25.539062 6.46875 -25 C 7 -24.457031 7.265625 -23.804688 7.265625 -23.046875 C 7.265625 -22.273438 7 -21.625 6.46875 -21.09375 C 5.945312 -20.5625 5.300781 -20.296875 4.53125 -20.296875 Z M 4.53125 -20.296875" transform="translate(86.381 219.629)"/></g></g></g><g fill="#FFF"><g><g><path d="M 10.40625 -18.359375 C 11.675781 -18.359375 12.875 -18.113281 14 -17.625 C 15.132812 -17.132812 16.117188 -16.460938 16.953125 -15.609375 C 17.796875 -14.753906 18.460938 -13.753906 18.953125 -12.609375 C 19.441406 -11.472656 19.6875 -10.257812 19.6875 -8.96875 C 19.6875 -7.664062 19.441406 -6.441406 18.953125 -5.296875 C 18.460938 -4.160156 17.796875 -3.164062 16.953125 -2.3125 C 16.117188 -1.46875 15.132812 -0.796875 14 -0.296875 C 12.875 0.191406 11.675781 0.4375 10.40625 0.4375 C 9.101562 0.4375 7.890625 0.191406 6.765625 -0.296875 C 5.640625 -0.796875 4.65625 -1.46875 3.8125 -2.3125 C 2.976562 -3.164062 2.3125 -4.160156 1.8125 -5.296875 C 1.320312 -6.441406 1.078125 -7.664062 1.078125 -8.96875 C 1.078125 -10.257812 1.320312 -11.472656 1.8125 -12.609375 C 2.3125 -13.753906 2.976562 -14.753906 3.8125 -15.609375 C 4.65625 -16.460938 5.640625 -17.132812 6.765625 -17.625 C 7.890625 -18.113281 9.101562 -18.359375 10.40625 -18.359375 Z M 10.40625 -3.921875 C 11 -3.921875 11.554688 -4.039062 12.078125 -4.28125 C 12.597656 -4.519531 13.054688 -4.847656 13.453125 -5.265625 C 13.847656 -5.691406 14.15625 -6.195312 14.375 -6.78125 C 14.601562 -7.375 14.71875 -8.03125 14.71875 -8.75 C 14.71875 -9.46875 14.601562 -10.140625 14.375 -10.765625 C 14.15625 -11.390625 13.847656 -11.9375 13.453125 -12.40625 C 13.054688 -12.875 12.597656 -13.242188 12.078125 -13.515625 C 11.554688 -13.796875 11 -13.9375 10.40625 -13.9375 C 9.800781 -13.9375 9.234375 -13.796875 8.703125 -13.515625 C 8.179688 -13.242188 7.722656 -12.875 7.328125 -12.40625 C 6.929688 -11.9375 6.617188 -11.390625 6.390625 -10.765625 C 6.160156 -10.140625 6.046875 -9.46875 6.046875 -8.75 C 6.046875 -8.03125 6.160156 -7.375 6.390625 -6.78125 C 6.617188 -6.195312 6.929688 -5.691406 7.328125 -5.265625 C 7.722656 -4.847656 8.179688 -4.519531 8.703125 -4.28125 C 9.234375 -4.039062 9.800781 -3.921875 10.40625 -3.921875 Z M 10.40625 -3.921875" transform="translate(95.705 219.629)"/></g></g></g><g fill="#FFF"><g><g><path d="M 1.765625 -26.3125 L 6.734375 -26.3125 L 6.734375 0 L 1.765625 0 Z M 1.765625 -26.3125" transform="translate(116.586 219.629)"/></g></g></g><g fill="#FFF"><g><g><path d="M 10.40625 -18.359375 C 11.675781 -18.359375 12.875 -18.113281 14 -17.625 C 15.132812 -17.132812 16.117188 -16.460938 16.953125 -15.609375 C 17.796875 -14.753906 18.460938 -13.753906 18.953125 -12.609375 C 19.441406 -11.472656 19.6875 -10.257812 19.6875 -8.96875 C 19.6875 -7.664062 19.441406 -6.441406 18.953125 -5.296875 C 18.460938 -4.160156 17.796875 -3.164062 16.953125 -2.3125 C 16.117188 -1.46875 15.132812 -0.796875 14 -0.296875 C 12.875 0.191406 11.675781 0.4375 10.40625 0.4375 C 9.101562 0.4375 7.890625 0.191406 6.765625 -0.296875 C 5.640625 -0.796875 4.65625 -1.46875 3.8125 -2.3125 C 2.976562 -3.164062 2.3125 -4.160156 1.8125 -5.296875 C 1.320312 -6.441406 1.078125 -7.664062 1.078125 -8.96875 C 1.078125 -10.257812 1.320312 -11.472656 1.8125 -12.609375 C 2.3125 -13.753906 2.976562 -14.753906 3.8125 -15.609375 C 4.65625 -16.460938 5.640625 -17.132812 6.765625 -17.625 C 7.890625 -18.113281 9.101562 -18.359375 10.40625 -18.359375 Z M 10.40625 -3.921875 C 11 -3.921875 11.554688 -4.039062 12.078125 -4.28125 C 12.597656 -4.519531 13.054688 -4.847656 13.453125 -5.265625 C 13.847656 -5.691406 14.15625 -6.195312 14.375 -6.78125 C 14.601562 -7.375 14.71875 -8.03125 14.71875 -8.75 C 14.71875 -9.46875 14.601562 -10.140625 14.375 -10.765625 C 14.15625 -11.390625 13.847656 -11.9375 13.453125 -12.40625 C 13.054688 -12.875 12.597656 -13.242188 12.078125 -13.515625 C 11.554688 -13.796875 11 -13.9375 10.40625 -13.9375 C 9.800781 -13.9375 9.234375 -13.796875 8.703125 -13.515625 C 8.179688 -13.242188 7.722656 -12.875 7.328125 -12.40625 C 6.929688 -11.9375 6.617188 -11.390625 6.390625 -10.765625 C 6.160156 -10.140625 6.046875 -9.46875 6.046875 -8.75 C 6.046875 -8.03125 6.160156 -7.375 6.390625 -6.78125 C 6.617188 -6.195312 6.929688 -5.691406 7.328125 -5.265625 C 7.722656 -4.847656 8.179688 -4.519531 8.703125 -4.28125 C 9.234375 -4.039062 9.800781 -3.921875 10.40625 -3.921875 Z M 10.40625 -3.921875" transform="translate(124.974 219.629)"/></g></g></g><g fill="#FFF"><g><g><path d="M 15.625 -17.859375 L 19.875 -17.859375 L 19.875 -6.046875 C 19.875 -4.679688 19.851562 -3.460938 19.8125 -2.390625 C 19.78125 -1.328125 19.691406 -0.367188 19.546875 0.484375 C 19.398438 1.335938 19.164062 2.097656 18.84375 2.765625 C 18.519531 3.441406 18.070312 4.066406 17.5 4.640625 C 16.4375 5.671875 15.25 6.378906 13.9375 6.765625 C 12.632812 7.148438 11.265625 7.34375 9.828125 7.34375 C 8.597656 7.34375 7.441406 7.195312 6.359375 6.90625 C 5.285156 6.625 4.316406 6.226562 3.453125 5.71875 L 3.453125 1.078125 C 3.671875 1.410156 3.976562 1.707031 4.375 1.96875 C 4.769531 2.238281 5.222656 2.46875 5.734375 2.65625 C 6.253906 2.851562 6.804688 3.003906 7.390625 3.109375 C 7.984375 3.222656 8.582031 3.28125 9.1875 3.28125 C 9.976562 3.28125 10.71875 3.175781 11.40625 2.96875 C 12.101562 2.757812 12.707031 2.425781 13.21875 1.96875 C 13.738281 1.519531 14.148438 0.953125 14.453125 0.265625 C 14.753906 -0.410156 14.90625 -1.242188 14.90625 -2.234375 L 14.90625 -2.59375 C 14.207031 -1.96875 13.398438 -1.46875 12.484375 -1.09375 C 11.578125 -0.726562 10.582031 -0.546875 9.5 -0.546875 C 8.300781 -0.546875 7.191406 -0.773438 6.171875 -1.234375 C 5.148438 -1.703125 4.265625 -2.335938 3.515625 -3.140625 C 2.773438 -3.953125 2.195312 -4.898438 1.78125 -5.984375 C 1.363281 -7.078125 1.15625 -8.238281 1.15625 -9.46875 C 1.15625 -10.6875 1.363281 -11.835938 1.78125 -12.921875 C 2.195312 -14.003906 2.773438 -14.945312 3.515625 -15.75 C 4.265625 -16.550781 5.148438 -17.1875 6.171875 -17.65625 C 7.191406 -18.125 8.300781 -18.359375 9.5 -18.359375 C 10.632812 -18.359375 11.65625 -18.207031 12.5625 -17.90625 C 13.476562 -17.601562 14.257812 -17.128906 14.90625 -16.484375 Z M 10.515625 -4.96875 C 11.273438 -4.96875 11.929688 -5.101562 12.484375 -5.375 C 13.035156 -5.65625 13.492188 -6.007812 13.859375 -6.4375 C 14.222656 -6.875 14.488281 -7.351562 14.65625 -7.875 C 14.820312 -8.40625 14.90625 -8.925781 14.90625 -9.4375 C 14.90625 -9.988281 14.8125 -10.53125 14.625 -11.0625 C 14.445312 -11.601562 14.175781 -12.082031 13.8125 -12.5 C 13.457031 -12.925781 13.003906 -13.269531 12.453125 -13.53125 C 11.898438 -13.800781 11.253906 -13.9375 10.515625 -13.9375 C 9.890625 -13.9375 9.3125 -13.816406 8.78125 -13.578125 C 8.25 -13.335938 7.785156 -13.007812 7.390625 -12.59375 C 6.992188 -12.1875 6.679688 -11.710938 6.453125 -11.171875 C 6.234375 -10.640625 6.125 -10.0625 6.125 -9.4375 C 6.125 -8.8125 6.234375 -8.226562 6.453125 -7.6875 C 6.679688 -7.144531 6.992188 -6.671875 7.390625 -6.265625 C 7.785156 -5.859375 8.25 -5.539062 8.78125 -5.3125 C 9.3125 -5.082031 9.890625 -4.96875 10.515625 -4.96875 Z M 10.515625 -4.96875" transform="translate(145.854 219.629)"/></g></g></g><g fill="#FFF"><g><g><path d="M 7.015625 0 L 2.046875 0 L 2.046875 -17.859375 L 7.015625 -17.859375 Z M 4.53125 -20.296875 C 3.769531 -20.296875 3.125 -20.5625 2.59375 -21.09375 C 2.0625 -21.625 1.796875 -22.273438 1.796875 -23.046875 C 1.796875 -23.804688 2.0625 -24.457031 2.59375 -25 C 3.125 -25.539062 3.769531 -25.8125 4.53125 -25.8125 C 5.300781 -25.8125 5.945312 -25.539062 6.46875 -25 C 7 -24.457031 7.265625 -23.804688 7.265625 -23.046875 C 7.265625 -22.273438 7 -21.625 6.46875 -21.09375 C 5.945312 -20.5625 5.300781 -20.296875 4.53125 -20.296875 Z M 4.53125 -20.296875" transform="translate(167.418 219.629)"/></g></g></g><g fill="#FFF"><g><g><path d="M 20.296875 -17.859375 L 20.296875 0 L 16.015625 0 L 15.515625 -1.90625 C 14.816406 -0.96875 13.984375 -0.34375 13.015625 -0.03125 C 12.046875 0.28125 11.03125 0.4375 9.96875 0.4375 C 8.695312 0.4375 7.523438 0.191406 6.453125 -0.296875 C 5.390625 -0.796875 4.460938 -1.46875 3.671875 -2.3125 C 2.878906 -3.164062 2.257812 -4.160156 1.8125 -5.296875 C 1.375 -6.441406 1.15625 -7.664062 1.15625 -8.96875 C 1.15625 -10.257812 1.375 -11.472656 1.8125 -12.609375 C 2.257812 -13.753906 2.878906 -14.753906 3.671875 -15.609375 C 4.460938 -16.460938 5.390625 -17.132812 6.453125 -17.625 C 7.523438 -18.113281 8.695312 -18.359375 9.96875 -18.359375 C 11.125 -18.359375 12.179688 -18.175781 13.140625 -17.8125 C 14.097656 -17.457031 14.890625 -16.882812 15.515625 -16.09375 L 16.015625 -17.859375 Z M 15.34375 -8.890625 C 15.34375 -9.828125 15.210938 -10.613281 14.953125 -11.25 C 14.703125 -11.882812 14.363281 -12.398438 13.9375 -12.796875 C 13.519531 -13.191406 13.03125 -13.476562 12.46875 -13.65625 C 11.90625 -13.84375 11.300781 -13.9375 10.65625 -13.9375 C 10.007812 -13.9375 9.398438 -13.800781 8.828125 -13.53125 C 8.265625 -13.269531 7.769531 -12.914062 7.34375 -12.46875 C 6.914062 -12.03125 6.578125 -11.503906 6.328125 -10.890625 C 6.085938 -10.273438 5.96875 -9.632812 5.96875 -8.96875 C 5.96875 -8.269531 6.085938 -7.617188 6.328125 -7.015625 C 6.578125 -6.421875 6.914062 -5.898438 7.34375 -5.453125 C 7.769531 -5.003906 8.265625 -4.648438 8.828125 -4.390625 C 9.398438 -4.128906 10.007812 -4 10.65625 -4 C 11.945312 -4 13.039062 -4.398438 13.9375 -5.203125 C 14.84375 -6.003906 15.3125 -7.234375 15.34375 -8.890625 Z M 15.34375 -8.890625" transform="translate(176.742 219.629)"/></g></g></g></svg>